<svg xmlns="http://www.w3.org/2000/svg" xmlns:xlink="http://www.w3.org/1999/xlink" version="1.1" x="0px" y="0px" viewBox="0 0 100 125" enable-background="new 0 0 100 100" xml:space="preserve"><path d="M39.5,9.5h-24c-4.412,0-8,3.588-8,8v24c0,4.412,3.588,8,8,8h24c4.41,0,8-3.588,8-8v-24C47.5,13.088,43.91,9.5,39.5,9.5z   M15.5,41.5v-24h24l0.004,24H15.5z M85.5,9.5h-24c-4.412,0-8,3.588-8,8v24c0,4.412,3.588,8,8,8h24c4.41,0,8-3.588,8-8v-24  C93.5,13.088,89.91,9.5,85.5,9.5z M61.5,41.5v-24h24l0.004,24H61.5z M39.5,55.5h-24c-4.412,0-8,3.588-8,8v24c0,4.412,3.588,8,8,8h24  c4.41,0,8-3.588,8-8v-24C47.5,59.088,43.91,55.5,39.5,55.5z M15.5,87.5v-24h24l0.004,24H15.5z M85.5,55.5h-24c-4.412,0-8,3.588-8,8  v24c0,4.412,3.588,8,8,8h24c4.41,0,8-3.588,8-8v-24C93.5,59.088,89.91,55.5,85.5,55.5z M61.5,87.5v-24h24l0.004,24H61.5z"/><text x="0" y="115" fill="#000000" font-size="5px" font-weight="bold" font-family="'Helvetica Neue', Helvetica, Arial-Unicode, Arial, Sans-serif">Created by Sergey Demushkin</text><text x="0" y="120" fill="#000000" font-size="5px" font-weight="bold" font-family="'Helvetica Neue', Helvetica, Arial-Unicode, Arial, Sans-serif">from the Noun Project</text></svg>