<svg xmlns="http://www.w3.org/2000/svg" xmlns:xlink="http://www.w3.org/1999/xlink" version="1.1" x="0px" y="0px" viewBox="0 0 100 125" enable-background="new 0 0 100 100" xml:space="preserve"><path d="M38.5,10.5h-24c-3.309,0-6,2.691-6,6v24c0,3.309,2.691,6,6,6h24c3.309,0,6-2.691,6-6v-24C44.5,13.191,41.809,10.5,38.5,10.5  z M40.5,40.5c0,1.104-0.896,2-2,2h-24c-1.104,0-2-0.896-2-2v-24c0-1.104,0.896-2,2-2h24c1.104,0,2,0.896,2,2V40.5z M84.5,10.5h-24  c-3.309,0-6,2.691-6,6v24c0,3.309,2.691,6,6,6h24c3.309,0,6-2.691,6-6v-24C90.5,13.191,87.809,10.5,84.5,10.5z M86.5,40.5  c0,1.104-0.896,2-2,2h-24c-1.104,0-2-0.896-2-2v-24c0-1.104,0.896-2,2-2h24c1.104,0,2,0.896,2,2V40.5z M38.5,56.5h-24  c-3.309,0-6,2.691-6,6v24c0,3.309,2.691,6,6,6h24c3.309,0,6-2.691,6-6v-24C44.5,59.191,41.809,56.5,38.5,56.5z M40.5,86.5  c0,1.104-0.896,2-2,2h-24c-1.104,0-2-0.896-2-2v-24c0-1.104,0.896-2,2-2h24c1.104,0,2,0.896,2,2V86.5z M84.5,56.5h-24  c-3.309,0-6,2.691-6,6v24c0,3.309,2.691,6,6,6h24c3.309,0,6-2.691,6-6v-24C90.5,59.191,87.809,56.5,84.5,56.5z M86.5,86.5  c0,1.104-0.896,2-2,2h-24c-1.104,0-2-0.896-2-2v-24c0-1.104,0.896-2,2-2h24c1.104,0,2,0.896,2,2V86.5z"/><text x="0" y="115" fill="#000000" font-size="5px" font-weight="bold" font-family="'Helvetica Neue', Helvetica, Arial-Unicode, Arial, Sans-serif">Created by Sergey Demushkin</text><text x="0" y="120" fill="#000000" font-size="5px" font-weight="bold" font-family="'Helvetica Neue', Helvetica, Arial-Unicode, Arial, Sans-serif">from the Noun Project</text></svg>