<?xml version="1.0" encoding="utf-8"?>
<!-- Generator: Adobe Illustrator 19.0.0, SVG Export Plug-In . SVG Version: 6.00 Build 0)  -->
<svg version="1.1" id="Layer_1" xmlns="http://www.w3.org/2000/svg" xmlns:xlink="http://www.w3.org/1999/xlink" x="0px" y="0px"
	 viewBox="0 0 12.2 12.2" style="enable-background:new 0 0 12.2 12.2;" xml:space="preserve">
<style type="text/css">
	.st0{fill:#FFFFFF;}
	.st1{fill:#01A79D;}
</style>
<g id="XMLID_54_">
	<path id="XMLID_59_" class="st0" d="M11,6.8L9.7,6.9C9.6,7.1,9.5,7.3,9.4,7.5l0.8,1L8.9,9.8L8,9C7.8,9.1,7.5,9.2,7.3,9.3l-0.1,1.3
		l-1.9,0L5.2,9.3C5,9.2,4.8,9.1,4.6,9l-1,0.8L2.3,8.5l0.8-1C3,7.3,2.9,7.1,2.8,6.9L1.6,6.8V4.9l1.3-0.1C2.9,4.6,3,4.4,3.1,4.1
		l-0.8-1l1.3-1.3l1,0.8C4.8,2.6,5,2.5,5.2,2.4l0.1-1.3h1.9l0.1,1.3C7.5,2.5,7.8,2.6,8,2.7l1-0.8l1.3,1.3l-0.8,1
		c0.1,0.2,0.2,0.4,0.3,0.7L11,4.9L11,6.8z"/>
	<g id="XMLID_55_">
		<g id="XMLID_56_">
			<g id="XMLID_57_">
				<circle id="XMLID_58_" class="st1" cx="6.3" cy="5.8" r="1.7"/>
			</g>
		</g>
	</g>
</g>
</svg>
